<svg xmlns="http://www.w3.org/2000/svg" xmlns:xlink="http://www.w3.org/1999/xlink" width="35" height="35"
    viewBox="8 5 20 20">
    <defs>
        <style>
            .a {
                fill: #fff;
                stroke: #fe4b02;
            }

            .b {
                fill: #fe4b02;
            }

            .c {
                stroke: none;
            }

            .d {
                fill: none;
            }

            .e {
                filter: url(#a);
            }
        </style>
        <filter id="a" x="0" y="0" width="37" height="37" filterUnits="userSpaceOnUse">
            <feOffset dy="3" input="SourceAlpha" />
            <feGaussianBlur stdDeviation="3" result="b" />
            <feFlood flood-opacity="0.161" />
            <feComposite operator="in" in2="b" />
            <feComposite in="SourceGraphic" />
        </filter>
    </defs>
    <g transform="translate(-1272 -555)">
        <g class="e" transform="matrix(1, 0, 0, 1, 1272, 555)">
            <g class="a" transform="translate(9 6)">
                <rect class="c" width="19" height="19" rx="3" />
                <rect fill="white" x="0.5" y="0.5" width="18" height="18" rx="2.5" />
            </g>
        </g>
        <path class="b"
            d="M17.3,12.854H13.96V9.518a.553.553,0,1,0-1.106,0v3.336H9.518a.553.553,0,0,0,0,1.106h3.336V17.3a.553.553,0,1,0,1.106,0V13.96H17.3a.553.553,0,1,0,0-1.106Z"
            transform="translate(1277.106 557.106)" />
    </g>
</svg>