<svg xmlns="http://www.w3.org/2000/svg" width="24.457" height="24.457" viewBox="0 0 24.457 24.457">
  <g id="Icon_ionic-ios-checkbox-outline" data-name="Icon ionic-ios-checkbox-outline" transform="translate(0)">
    <g id="Group_9867" data-name="Group 9867" transform="translate(0 0)">
      <path id="Path_1" data-name="Path 1" d="M26.919,4.5H6.538A2.036,2.036,0,0,0,4.5,6.538V26.919a2.036,2.036,0,0,0,2.038,2.038H26.919a2.036,2.036,0,0,0,2.038-2.038V6.538A2.036,2.036,0,0,0,26.919,4.5Z" transform="translate(-4.5 -4.5)" fill="#fe4b02"/>
      <path id="Path_2" data-name="Path 2" d="M24.766,13.544l-1.17-1.26a.248.248,0,0,0-.186-.084h0a.239.239,0,0,0-.186.084L15.1,20.812l-2.957-3.08a.251.251,0,0,0-.373,0l-1.187,1.236a.284.284,0,0,0,0,.4l3.729,3.884a1.162,1.162,0,0,0,.779.4,1.216,1.216,0,0,0,.772-.382h.006l8.906-9.322a.306.306,0,0,0-.008-.4Z" transform="translate(-5.363 -5.693)" fill="#fff"/>
    </g>
  </g>
</svg>
