<svg class="svg-icon" style="width: 1em; height: 1em;vertical-align: middle;fill: #00000078;overflow: hidden;" viewBox="0 0 1024 1024" version="1.1" xmlns="http://www.w3.org/2000/svg"><path d="M662.6 617.4L557.2 512l105.4-105.4c12.4-12.4 12.4-32.8 0-45.2-12.4-12.4-32.8-12.4-45.2 0L512 466.8l-105.4-105.4c-12.4-12.4-31.2-14.2-45.2 0-14.2 14.2-12 33.2 0 45.2l105.4 105.4-105.4 105.4c-13.4 13.4-12.8 32.6 0 45.2 12.8 12.8 32.8 12.4 45.2 0l105.4-105.4 105.4 105.4c12.4 12.4 32.8 12.4 45.2 0 12.6-12.4 12.6-32.8 0-45.2z"  /><path d="M512 152c96.2 0 186.6 37.4 254.6 105.4S872 415.8 872 512s-37.4 186.6-105.4 254.6S608.2 872 512 872c-96.2 0-186.6-37.4-254.6-105.4S152 608.2 152 512s37.4-186.6 105.4-254.6S415.8 152 512 152m0-56C282.2 96 96 282.2 96 512s186.2 416 416 416 416-186.2 416-416S741.8 96 512 96z"  /></svg>