<svg xmlns="http://www.w3.org/2000/svg" width="20" height="20" viewBox="0 0 20 20"><defs><style>.a{fill:#e9e9e9;}.b{fill:#fe4b02;}</style></defs><g transform="translate(-532 -793)"><circle class="a" cx="10" cy="10" r="10" transform="translate(532 793)"/><path class="b" d="M3.168-9.92a1.18,1.18,0,0,1-.848-.3A1.014,1.014,0,0,1,2-10.992a1.447,1.447,0,0,1,.488-1.1,1.622,1.622,0,0,1,1.144-.456,1.158,1.158,0,0,1,.832.3,1.014,1.014,0,0,1,.32.768,1.458,1.458,0,0,1-.48,1.1A1.594,1.594,0,0,1,3.168-9.92ZM4.1-8.864,2.528,0H.272L1.84-8.864Z" transform="translate(539.793 809.156)"/></g></svg>