<svg xmlns="http://www.w3.org/2000/svg" width="157.106" height="72.984" viewBox="0 0 157.106 72.984"><path fill="#d6242c" d="M35.92,108.917c-24.988,1.886-40.738,28.4-30.481,51.309A36.56,36.56,0,0,0,64.53,171.179c4.372-4.355,8.822-11.964,9.381-16.043l.093-.68H61.6V136.07h6.182c5.852,0,6.182-.015,6.182-.286a32.852,32.852,0,0,0-2.622-6.884A36.552,36.552,0,0,0,35.92,108.917M150.2,136.03c-2.77.751-4.282,2.586-4.28,5.192,0,3.006,1.489,4.356,6.024,5.469,2.766.679,3.975,1.365,4.175,2.369.659,3.293-4.651,3.829-8.541.862l-.516-.393-.887,1.046c-1.115,1.315-1.114,1.328.218,2.214,5.937,3.947,13.262,1.8,12.965-3.8-.133-2.505-1.626-4.007-4.877-4.9-4.53-1.251-5.194-1.617-5.34-2.947-.287-2.619,3.727-3.286,7.034-1.171,1.006.644.934.668,1.862-.657.892-1.276.9-1.193-.109-1.848a10.159,10.159,0,0,0-7.727-1.431m-111.9,1.61v1.57l-4.914,5.72c-2.7,3.146-4.914,5.791-4.914,5.879a29.856,29.856,0,0,0,4.914.159H38.3v3.487H23.081v-3.091l4.908-5.706c2.7-3.138,4.91-5.8,4.913-5.9,0-.154-1.048-.2-4.75-.2H23.4V136.07H38.3v1.571m18.307.252v1.744l-4.953.042-4.953.042v3.637l4.953.042,4.953.042.045,1.783.045,1.783H46.688l.045,1.942.044,1.942,4.953.042,4.953.042v3.483H42.577v-9.088c0-5,.048-9.136.107-9.195s3.215-.089,7.014-.066l6.906.041v1.744m22.851-1.717c-.058.058-.106,4.2-.106,9.2v9.093l1.625-.045,1.625-.045.026-6.234c.023-5.541.067-6.6.264-6.354l4.465,5.772c2.427,3.138,4.622,5.976,4.879,6.307l.466.6,1.369-.046,1.369-.046V136.149h-3.17l-.079,6.225L92.11,148.6l-1.691-2.183c-.93-1.2-2.986-3.859-4.57-5.908s-3.016-3.885-3.182-4.082a5.342,5.342,0,0,0-3.211-.251m20.658,9.087v9.193H113.9v-2.849l-5.27-.042-5.27-.042v-4.755l4.6-.079,4.6-.079.047-1.243c.068-1.828.371-1.717-4.443-1.617-2.26.048-4.283.042-4.5-.011l-.388-.1.044-2.32.044-2.32,5.191-.042,5.191-.042V136.07H100.114v9.193m16.168-9.042c0,.135,1.635,4.928,3.327,9.755.336.959.867,2.492,1.18,3.408s.841,2.449,1.175,3.408l.607,1.744,1.437.045,1.437.046.871-2.582c2.065-6.123,3.482-10.2,3.586-10.31.061-.067,1.107,2.787,2.323,6.34l2.212,6.461,1.456.046,1.455.045.232-.758c.128-.417.779-2.328,1.448-4.246s1.595-4.593,2.059-5.944,1.207-3.5,1.651-4.782c1.072-3.086,1.142-2.847-.817-2.792l-1.625.045-.35,1.03c-.38,1.117-2.776,8.568-3.479,10.818a5.18,5.18,0,0,1-.554,1.387c-.066,0-1.1-2.978-2.307-6.618l-2.187-6.618h-2.831l-2.175,6.549c-2.056,6.192-2.288,6.833-2.417,6.673-.029-.036-.966-2.919-2.083-6.406s-2.093-6.465-2.172-6.618c-.159-.311-3.459-.431-3.459-.126m-50.616,3.6a8.84,8.84,0,0,0-.106,1.823v1.717h9.71l-.1-1.149c-.057-.632-.146-1.452-.2-1.823l-.092-.674H70.324c-2.5,0-4.6.048-4.658.106m-.037,7.394a13.448,13.448,0,0,0-.034,1.942l.045,1.733h9.18l.1-.512c.058-.282.155-1.156.217-1.942l.112-1.43H70.48c-3.8,0-4.788.043-4.852.208" transform="translate(-2.262 -108.812)"/></svg>