<svg xmlns="http://www.w3.org/2000/svg" width="40" height="40" viewBox="0 0 40 40"><defs><style>.a{fill:#f5f5f5;}.b{fill:#696969;}.c{fill:#fe4b02;stroke:#fff;}.d{stroke:none;}.e{fill:none;}</style></defs><g transform="translate(-1132 -12)"><rect class="" width="40" height="40" rx="6" transform="translate(1132 12)"/><g transform="translate(20 -3)"><path class="b" d="M14.461,24.374a2.122,2.122,0,0,0,2.115-2.115H12.346A2.115,2.115,0,0,0,14.461,24.374Zm6.346-6.346V12.74c0-3.247-1.735-5.965-4.759-6.684V5.336a1.586,1.586,0,1,0-3.173,0v.719c-3.035.719-4.759,3.427-4.759,6.684v5.288L6,20.144V21.2H22.923V20.144Z" transform="translate(1117.681 19.004)"/><g class="c" transform="translate(1132 24)"><circle class="d" cx="4.5" cy="4.5" r="4.5"/><circle class="e" cx="4.5" cy="4.5" r="4"/></g></g></g></svg>