<svg xmlns="http://www.w3.org/2000/svg" width="22.172" height="19" viewBox="0 0 22.172 19">
    <path d="M13.338,8.5a5.026,5.026,0,0,1,5.042,5,4.812,4.812,0,0,1-.361,1.831l2.944,2.919a11.829,11.829,0,0,0,3.459-4.75A11.94,11.94,0,0,0,9.316,6.7l2.177,2.162A4.985,4.985,0,0,1,13.338,8.5ZM3.259,5.772l2.3,2.281.465.46A11.772,11.772,0,0,0,2.25,13.5a11.958,11.958,0,0,0,15.5,6.66l.426.421L21.131,23.5l1.282-1.272L4.536,4.5ZM8.831,11.3l1.564,1.549a2.834,2.834,0,0,0-.079.648,3.008,3.008,0,0,0,3.023,3,2.843,2.843,0,0,0,.653-.079l1.564,1.549A5.016,5.016,0,0,1,8.3,13.49,4.942,4.942,0,0,1,8.831,11.3Zm4.344-.777,3.177,3.152.02-.158a3.008,3.008,0,0,0-3.023-3Z" transform="translate(-2.25 -4.5)"/>
</svg>