<svg xmlns="http://www.w3.org/2000/svg" width="24" height="23.999" viewBox="0 0 24 23.999">
  <path id="undo" d="M8.906,24H16.5a.938.938,0,0,0,0-1.875H8.906a7.031,7.031,0,0,1,0-14.063h6.469A1.877,1.877,0,0,0,17.25,6.187V1.878h0l0,0,0,0L21.849,6.46a.939.939,0,0,1,0,1.329l-4.592,4.582,0,0,0,0h0V11.343a.938.938,0,0,0-1.875,0v1.028A1.879,1.879,0,0,0,18.582,13.7l4.592-4.582a2.814,2.814,0,0,0,0-3.984L18.582.55a1.879,1.879,0,0,0-3.207,1.328V6.187H8.906A8.906,8.906,0,0,0,8.906,24Zm0,0" transform="translate(0 0)"/>
</svg>
