<svg xmlns="http://www.w3.org/2000/svg" width="32" height="20.032" viewBox="0 0 32 20.032"><g transform="translate(0 -96)"><g transform="translate(30.005 104.93)"><g transform="translate(0 0)"><rect width="2" height="2" transform="translate(-0.005 0.07)"/></g></g><g transform="translate(26.076 104.93)"><g transform="translate(0 0)"><rect width="2" height="2" transform="translate(-0.076 0.07)"/></g></g><g transform="translate(22.146 104.93)"><g transform="translate(0 0)"><rect width="2" height="2" transform="translate(-0.146 0.07)"/></g></g><g transform="translate(17.86 104.93)"><g transform="translate(0 0)"><rect width="2" height="2" transform="translate(0.14 0.07)"/></g></g><g transform="translate(0 96)"><path d="M23.49,112.134l-12.066-6.118L23.49,99.9a1,1,0,0,0-.905-1.787L9.211,104.894,6.186,103.36a4,4,0,1,0-3.988.222l0,0L7,106.016,2.2,108.45a4.016,4.016,0,1,0,3.99.222l3.025-1.534,13.374,6.781a.962.962,0,0,0,.453.11,1,1,0,0,0,.453-1.9ZM4.006,102.01a2,2,0,1,1,2-2A1.989,1.989,0,0,1,4.006,102.01Zm0,12.019a2,2,0,1,1,2-2A2.007,2.007,0,0,1,4.006,114.029Z" transform="translate(0 -96)"/></g></g></svg>