<svg xmlns="http://www.w3.org/2000/svg" width="22" height="23.864" viewBox="0 0 22 23.864"><g transform="translate(-20)"><g transform="translate(20)"><g transform="translate(0)"><path d="M41.068,3.869h-5.64V2.8a2.8,2.8,0,0,0-2.8-2.8H29.369a2.8,2.8,0,0,0-2.8,2.8V3.869h-5.64a.932.932,0,0,0,0,1.864H21.9l1.136,14.728v.013a3.729,3.729,0,0,0,3.713,3.39h8.5A3.7,3.7,0,0,0,38.965,20.5a.932.932,0,1,0-1.857-.169A1.843,1.843,0,0,1,35.252,22h-8.5a1.855,1.855,0,0,1-1.856-1.689L23.768,5.733H38.232l-.8,10.322a.932.932,0,0,0,.858,1l.073,0A.932.932,0,0,0,39.3,16.2L40.1,5.733h.965a.932.932,0,1,0,0-1.864Zm-7.5,0H28.436V2.8a.933.933,0,0,1,.932-.932h3.263a.933.933,0,0,1,.932.932Z" transform="translate(-20)"/><path d="M146.891,163a.932.932,0,0,0-.891.972l.466,10.671a.932.932,0,0,0,.931.892h.041a.932.932,0,0,0,.891-.972l-.466-10.671A.932.932,0,0,0,146.891,163Z" transform="translate(-140.127 -155.401)"/><path d="M316.467,163.891,316,174.562a.932.932,0,0,0,.891.972h.041a.932.932,0,0,0,.931-.892l.466-10.671a.932.932,0,0,0-1.863-.081Z" transform="translate(-302.203 -155.402)"/><path d="M236,163.932V174.6a.932.932,0,0,0,1.864,0V163.932a.932.932,0,0,0-1.864,0Z" transform="translate(-225.932 -155.403)"/></g></g></g></svg>