<svg xmlns="http://www.w3.org/2000/svg" width="24" height="23.999" viewBox="0 0 24 23.999">
  <path id="undo"
    d="M15.094,24H7.5a.938.938,0,0,1,0-1.875h7.594a7.031,7.031,0,0,0,0-14.063H8.625A1.877,1.877,0,0,1,6.75,6.187V1.878h0l0,0,0,0L2.151,6.46a.939.939,0,0,0,0,1.329l4.592,4.582,0,0,0,0h0V11.343a.938.938,0,0,1,1.875,0v1.028A1.879,1.879,0,0,1,5.418,13.7L.826,9.116a2.814,2.814,0,0,1,0-3.984L5.418.55A1.879,1.879,0,0,1,8.625,1.878V6.187h6.469a8.906,8.906,0,0,1,0,17.813Zm0,0"
    transform="translate(0 0)" fill="#000000" />
</svg>