<svg xmlns="http://www.w3.org/2000/svg" width="22.125" height="22.125" viewBox="0 0 22.125 22.125"><defs><style>.a{fill:none;}.b{fill:#ccefe3;}.c{fill:#53b982;}</style></defs><rect class="a" width="22.125" height="22.125"/><g transform="translate(0.82 0.818)"><circle class="b" cx="10.243" cy="10.243" r="10.243" transform="translate(0 0)"/><path class="c" d="M6.618,10.473l-.574.574a.615.615,0,0,1-.871,0l-4.992-5a.615.615,0,0,1,0-.871l5-5a.615.615,0,0,1,.871,0l.574.574a.617.617,0,0,1-.011.882l-3.1,2.95H10.9a.615.615,0,0,1,.617.617v.819a.615.615,0,0,1-.617.618H3.511l3.1,2.95a.613.613,0,0,1,.01.881Z" transform="translate(18.521 10.113) rotate(133)"/></g></svg>